<svg width="500" height="500" xmlns="http://www.w3.org/2000/svg">
<rect width="100%" height="100%" fill="#EEEEEE" />
<circle cx="250" cy="250" r="250"
stroke="black" stroke-width="2" fill="none" />
<circle cx="388" cy="156" r="10" fill="#00FFFF" />
<circle cx="295" cy="11" r="10" fill="#00FFFF" />
<circle cx="376" cy="57" r="10" fill="#00FFFF" />
<circle cx="408" cy="259" r="10" fill="#00FFFF" />
<circle cx="99" cy="243" r="10" fill="#00FFFF" />
<circle cx="276" cy="38" r="10" fill="#00FFFF" />
<circle cx="132" cy="171" r="10" fill="#00FFFF" />
<circle cx="159" cy="393" r="10" fill="#00FFFF" />
<circle cx="119" cy="161" r="10" fill="#00FFFF" />
<circle cx="198" cy="436" r="10" fill="#00FFFF" />
<circle cx="86" cy="215" r="10" fill="#00FFFF" />
<circle cx="365" cy="373" r="10" fill="#00FFFF" />
<circle cx="108" cy="136" r="10" fill="#00FFFF" />
<circle cx="35" cy="161" r="10" fill="#00FFFF" />
<circle cx="284" cy="130" r="10" fill="#00FFFF" />
<circle cx="363" cy="174" r="10" fill="#00FFFF" />
<circle cx="486" cy="306" r="10" fill="#00FFFF" />
<circle cx="154" cy="211" r="10" fill="#00FFFF" />
<circle cx="323" cy="365" r="10" fill="#00FFFF" />
<circle cx="162" cy="50" r="10" fill="#00FFFF" />
<circle cx="340" cy="114" r="10" fill="#00FFFF" />
<circle cx="326" cy="214" r="10" fill="#00FFFF" />
<circle cx="289" cy="162" r="10" fill="#00FFFF" />
<circle cx="88" cy="319" r="10" fill="#00FFFF" />
<circle cx="183" cy="298" r="10" fill="#00FFFF" />
<circle cx="367" cy="278" r="10" fill="#00FFFF" />
<circle cx="390" cy="379" r="10" fill="#00FFFF" />
<circle cx="226" cy="428" r="10" fill="#00FFFF" />
<circle cx="75" cy="325" r="10" fill="#00FFFF" />
<circle cx="100" cy="90" r="10" fill="#00FFFF" />
<circle cx="113" cy="323" r="10" fill="#00FFFF" />
<circle cx="332" cy="481" r="10" fill="#00FFFF" />
<circle cx="292" cy="275" r="10" fill="#00FFFF" />
<circle cx="54" cy="132" r="10" fill="#00FFFF" />
<circle cx="468" cy="182" r="10" fill="#00FFFF" />
<circle cx="166" cy="443" r="10" fill="#00FFFF" />
<circle cx="70" cy="111" r="10" fill="#00FFFF" />
<circle cx="374" cy="211" r="10" fill="#00FFFF" />
<circle cx="484" cy="301" r="10" fill="#00FFFF" />
<circle cx="247" cy="391" r="10" fill="#00FFFF" />
<circle cx="361" cy="323" r="10" fill="#00FFFF" />
<circle cx="281" cy="276" r="10" fill="#00FFFF" />
<circle cx="364" cy="329" r="10" fill="#00FFFF" />
<circle cx="186" cy="432" r="10" fill="#00FFFF" />
<circle cx="45" cy="242" r="10" fill="#00FFFF" />
<circle cx="268" cy="217" r="10" fill="#00FFFF" />
<circle cx="180" cy="390" r="10" fill="#00FFFF" />
<circle cx="412" cy="414" r="10" fill="#00FFFF" />
<circle cx="79" cy="307" r="10" fill="#00FFFF" />
<circle cx="72" cy="161" r="10" fill="#00FFFF" />
<circle cx="146" cy="297" r="10" fill="#00FFFF" />
<circle cx="385" cy="418" r="10" fill="#00FFFF" />
<circle cx="159" cy="344" r="10" fill="#00FFFF" />
<circle cx="26" cy="338" r="10" fill="#00FFFF" />
<circle cx="394" cy="372" r="10" fill="#00FFFF" />
<circle cx="439" cy="247" r="10" fill="#00FFFF" />
<circle cx="449" cy="253" r="10" fill="#00FFFF" />
<circle cx="88" cy="286" r="10" fill="#00FFFF" />
<circle cx="220" cy="421" r="10" fill="#00FFFF" />
<circle cx="195" cy="17" r="10" fill="#00FFFF" />
<circle cx="262" cy="73" r="10" fill="#00FFFF" />
<circle cx="9" cy="211" r="10" fill="#00FFFF" />
<circle cx="208" cy="308" r="10" fill="#00FFFF" />
<circle cx="443" cy="377" r="10" fill="#00FFFF" />
<circle cx="242" cy="177" r="10" fill="#00FFFF" />
<circle cx="142" cy="351" r="10" fill="#00FFFF" />
<circle cx="315" cy="102" r="10" fill="#00FFFF" />
<circle cx="312" cy="410" r="10" fill="#00FFFF" />
<circle cx="342" cy="47" r="10" fill="#00FFFF" />
<circle cx="214" cy="130" r="10" fill="#00FFFF" />
<circle cx="214" cy="81" r="10" fill="#00FFFF" />
<circle cx="227" cy="172" r="10" fill="#00FFFF" />
<circle cx="411" cy="121" r="10" fill="#00FFFF" />
<circle cx="344" cy="167" r="10" fill="#00FFFF" />
<circle cx="133" cy="158" r="10" fill="#00FFFF" />
<circle cx="321" cy="248" r="10" fill="#00FFFF" />
<circle cx="252" cy="273" r="10" fill="#00FFFF" />
<circle cx="454" cy="205" r="10" fill="#00FFFF" />
<circle cx="80" cy="123" r="10" fill="#00FFFF" />
<circle cx="275" cy="104" r="10" fill="#00FFFF" />
<circle cx="282" cy="18" r="10" fill="#00FFFF" />
<circle cx="253" cy="78" r="10" fill="#00FFFF" />
<circle cx="279" cy="15" r="10" fill="#00FFFF" />
<circle cx="143" cy="468" r="10" fill="#00FFFF" />
<circle cx="342" cy="450" r="10" fill="#00FFFF" />
<circle cx="433" cy="412" r="10" fill="#00FFFF" />
<circle cx="413" cy="123" r="10" fill="#00FFFF" />
<circle cx="307" cy="439" r="10" fill="#00FFFF" />
<circle cx="193" cy="467" r="10" fill="#00FFFF" />
<circle cx="40" cy="171" r="10" fill="#00FFFF" />
<circle cx="324" cy="432" r="10" fill="#00FFFF" />
<circle cx="282" cy="295" r="10" fill="#00FFFF" />
<circle cx="185" cy="285" r="10" fill="#00FFFF" />
<circle cx="452" cy="167" r="10" fill="#00FFFF" />
<circle cx="416" cy="119" r="10" fill="#00FFFF" />
<circle cx="131" cy="239" r="10" fill="#00FFFF" />
<circle cx="322" cy="362" r="10" fill="#00FFFF" />
<circle cx="256" cy="327" r="10" fill="#00FFFF" />
<circle cx="407" cy="76" r="10" fill="#00FFFF" />
<circle cx="174" cy="99" r="10" fill="#00FFFF" />
<circle cx="234" cy="385" r="10" fill="#00FFFF" />
<circle cx="251" cy="48" r="10" fill="#00FFFF" />
<circle cx="292" cy="323" r="10" fill="#00FFFF" />
<circle cx="237" cy="81" r="10" fill="#00FFFF" />
<circle cx="235" cy="291" r="10" fill="#00FFFF" />
<circle cx="224" cy="127" r="10" fill="#00FFFF" />
<circle cx="333" cy="129" r="10" fill="#00FFFF" />
<circle cx="262" cy="384" r="10" fill="#00FFFF" />
<circle cx="263" cy="154" r="10" fill="#00FFFF" />
<circle cx="277" cy="322" r="10" fill="#00FFFF" />
<circle cx="391" cy="148" r="10" fill="#00FFFF" />
<circle cx="432" cy="121" r="10" fill="#00FFFF" />
<circle cx="220" cy="106" r="10" fill="#00FFFF" />
<circle cx="392" cy="365" r="10" fill="#00FFFF" />
<circle cx="413" cy="336" r="10" fill="#00FFFF" />
<circle cx="243" cy="19" r="10" fill="#00FFFF" />
<circle cx="195" cy="356" r="10" fill="#00FFFF" />
<circle cx="172" cy="425" r="10" fill="#00FFFF" />
<circle cx="378" cy="121" r="10" fill="#00FFFF" />
<circle cx="330" cy="123" r="10" fill="#00FFFF" />
<circle cx="252" cy="363" r="10" fill="#00FFFF" />
<circle cx="179" cy="123" r="10" fill="#00FFFF" />
<circle cx="418" cy="104" r="10" fill="#00FFFF" />
<circle cx="153" cy="25" r="10" fill="#00FFFF" />
<circle cx="177" cy="191" r="10" fill="#00FFFF" />
<circle cx="485" cy="223" r="10" fill="#00FFFF" />
<circle cx="319" cy="149" r="10" fill="#00FFFF" />
<circle cx="201" cy="78" r="10" fill="#00FFFF" />
<circle cx="375" cy="309" r="10" fill="#00FFFF" />
<circle cx="89" cy="59" r="10" fill="#00FFFF" />
<circle cx="324" cy="183" r="10" fill="#00FFFF" />
<circle cx="188" cy="60" r="10" fill="#00FFFF" />
<circle cx="323" cy="184" r="10" fill="#00FFFF" />
<circle cx="393" cy="177" r="10" fill="#00FFFF" />
<circle cx="226" cy="311" r="10" fill="#00FFFF" />
<circle cx="151" cy="89" r="10" fill="#00FFFF" />
<circle cx="184" cy="13" r="10" fill="#00FFFF" />
<circle cx="211" cy="271" r="10" fill="#00FFFF" />
<circle cx="202" cy="284" r="10" fill="#00FFFF" />
<circle cx="75" cy="243" r="10" fill="#00FFFF" />
<circle cx="147" cy="428" r="10" fill="#00FFFF" />
<circle cx="442" cy="399" r="10" fill="#00FFFF" />
<circle cx="282" cy="394" r="10" fill="#00FFFF" />
<circle cx="363" cy="473" r="10" fill="#00FFFF" />
<circle cx="301" cy="137" r="10" fill="#00FFFF" />
<circle cx="23" cy="219" r="10" fill="#00FFFF" />
<circle cx="442" cy="199" r="10" fill="#00FFFF" />
<circle cx="397" cy="360" r="10" fill="#00FFFF" />
<circle cx="106" cy="140" r="10" fill="#00FFFF" />
<circle cx="238" cy="497" r="10" fill="#00FFFF" />
<circle cx="408" cy="89" r="10" fill="#00FFFF" />
<circle cx="253" cy="319" r="10" fill="#00FFFF" />
<circle cx="259" cy="124" r="10" fill="#00FFFF" />
<circle cx="309" cy="287" r="10" fill="#00FFFF" />
<circle cx="131" cy="364" r="10" fill="#00FFFF" />
<circle cx="380" cy="320" r="10" fill="#00FFFF" />
<circle cx="210" cy="460" r="10" fill="#00FFFF" />
<circle cx="87" cy="217" r="10" fill="#00FFFF" />
<circle cx="213" cy="170" r="10" fill="#00FFFF" />
<circle cx="42" cy="197" r="10" fill="#00FFFF" />
<circle cx="5" cy="284" r="10" fill="#00FFFF" />
<circle cx="240" cy="41" r="10" fill="#00FFFF" />
<circle cx="281" cy="436" r="10" fill="#00FFFF" />
<circle cx="104" cy="50" r="10" fill="#00FFFF" />
<circle cx="151" cy="289" r="10" fill="#00FFFF" />
<circle cx="68" cy="90" r="10" fill="#00FFFF" />
<circle cx="172" cy="222" r="10" fill="#00FFFF" />
<circle cx="225" cy="148" r="10" fill="#00FFFF" />
<circle cx="74" cy="309" r="10" fill="#00FFFF" />
<circle cx="257" cy="417" r="10" fill="#00FFFF" />
<circle cx="136" cy="428" r="10" fill="#00FFFF" />
<circle cx="367" cy="163" r="10" fill="#00FFFF" />
<circle cx="366" cy="89" r="10" fill="#00FFFF" />
<circle cx="304" cy="105" r="10" fill="#00FFFF" />
<circle cx="351" cy="44" r="10" fill="#00FFFF" />
<circle cx="280" cy="425" r="10" fill="#00FFFF" />
<circle cx="402" cy="376" r="10" fill="#00FFFF" />
<circle cx="283" cy="395" r="10" fill="#00FFFF" />
<circle cx="421" cy="382" r="10" fill="#00FFFF" />
<circle cx="357" cy="325" r="10" fill="#00FFFF" />
<circle cx="415" cy="233" r="10" fill="#00FFFF" />
<circle cx="342" cy="387" r="10" fill="#00FFFF" />
<circle cx="116" cy="221" r="10" fill="#00FFFF" />
<circle cx="294" cy="6" r="10" fill="#00FFFF" />
<circle cx="37" cy="190" r="10" fill="#00FFFF" />
<circle cx="122" cy="295" r="10" fill="#00FFFF" />
<circle cx="432" cy="363" r="10" fill="#00FFFF" />
<circle cx="476" cy="268" r="10" fill="#00FFFF" />
<circle cx="338" cy="458" r="10" fill="#00FFFF" />
<circle cx="159" cy="63" r="10" fill="#00FFFF" />
<circle cx="416" cy="398" r="10" fill="#00FFFF" />
<circle cx="218" cy="457" r="10" fill="#00FFFF" />
<circle cx="96" cy="334" r="10" fill="#00FFFF" />
<circle cx="168" cy="420" r="10" fill="#00FFFF" />
<circle cx="71" cy="224" r="10" fill="#00FFFF" />
<circle cx="191" cy="283" r="10" fill="#00FFFF" />
<circle cx="461" cy="382" r="10" fill="#00FFFF" />
<circle cx="253" cy="492" r="10" fill="#00FFFF" />
<circle cx="293" cy="413" r="10" fill="#00FFFF" />
<circle cx="40" cy="198" r="10" fill="#00FFFF" />
<circle cx="152" cy="322" r="10" fill="#00FFFF" />
<circle cx="32" cy="322" r="10" fill="#00FFFF" />
<circle cx="406" cy="307" r="10" fill="#00FFFF" />
<circle cx="339" cy="108" r="10" fill="#00FFFF" />
<circle cx="313" cy="488" r="10" fill="#00FFFF" />
<circle cx="223" cy="473" r="10" fill="#00FFFF" />
<circle cx="74" cy="257" r="10" fill="#00FFFF" />
<circle cx="328" cy="150" r="10" fill="#00FFFF" />
<circle cx="454" cy="382" r="10" fill="#00FFFF" />
<circle cx="375" cy="220" r="10" fill="#00FFFF" />
<circle cx="259" cy="309" r="10" fill="#00FFFF" />
<circle cx="213" cy="271" r="10" fill="#00FFFF" />
<circle cx="204" cy="164" r="10" fill="#00FFFF" />
<circle cx="157" cy="83" r="10" fill="#00FFFF" />
<circle cx="122" cy="374" r="10" fill="#00FFFF" />
<circle cx="166" cy="294" r="10" fill="#00FFFF" />
<circle cx="182" cy="22" r="10" fill="#00FFFF" />
<circle cx="377" cy="318" r="10" fill="#00FFFF" />
<circle cx="182" cy="472" r="10" fill="#00FFFF" />
<circle cx="206" cy="436" r="10" fill="#00FFFF" />
<circle cx="333" cy="73" r="10" fill="#00FFFF" />
<circle cx="53" cy="312" r="10" fill="#00FFFF" />
<circle cx="129" cy="244" r="10" fill="#00FFFF" />
<circle cx="343" cy="476" r="10" fill="#00FFFF" />
<circle cx="243" cy="477" r="10" fill="#00FFFF" />
<circle cx="299" cy="444" r="10" fill="#00FFFF" />
<circle cx="289" cy="320" r="10" fill="#00FFFF" />
<circle cx="397" cy="79" r="10" fill="#00FFFF" />
<circle cx="54" cy="128" r="10" fill="#00FFFF" />
<circle cx="148" cy="477" r="10" fill="#00FFFF" />
<circle cx="286" cy="148" r="10" fill="#00FFFF" />
<circle cx="263" cy="11" r="10" fill="#00FFFF" />
<circle cx="265" cy="89" r="10" fill="#00FFFF" />
<circle cx="137" cy="289" r="10" fill="#00FFFF" />
<circle cx="94" cy="338" r="10" fill="#00FFFF" />
<circle cx="96" cy="181" r="10" fill="#00FFFF" />
<circle cx="411" cy="363" r="10" fill="#00FFFF" />
<circle cx="363" cy="208" r="10" fill="#00FFFF" />
<circle cx="374" cy="288" r="10" fill="#00FFFF" />
<circle cx="456" cy="153" r="10" fill="#00FFFF" />
<circle cx="321" cy="164" r="10" fill="#00FFFF" />
<circle cx="411" cy="328" r="10" fill="#00FFFF" />
<circle cx="217" cy="237" r="10" fill="#00FFFF" />
<circle cx="362" cy="169" r="10" fill="#00FFFF" />
<circle cx="158" cy="231" r="10" fill="#00FFFF" />
</svg>